<?xml version="1.0" encoding="utf-8" ?><svg xmlns="http://www.w3.org/2000/svg" xmlns:xlink="http://www.w3.org/1999/xlink" width="1105" height="777" viewBox="0 0 1105 777"><path fill="#93C63B" transform="matrix(1.38819 0 0 1.3875 0.000488281 -0.00012207)" d="M619.129 28.1436C621.657 28.0513 630.157 26.9301 630.131 30.3531C626.281 36.6954 591.797 47.7005 582.979 51.533C571.295 56.6119 564.314 65.838 559.852 77.4087C557.228 84.2132 555.285 91.5665 554.081 98.759C550.473 120.317 548.021 173.642 556.673 193.096C564.14 209.883 579.395 225.999 595.318 235.042C599.904 237.647 604.929 239.698 609.825 241.638C616.134 244.138 623.024 245.06 629.158 247.969C638.034 252.178 643.957 259.166 653.831 262.987C661.935 260.896 670.203 256.117 675.935 249.989C674.883 246.602 663.554 216.813 661.898 215.235C657.345 210.896 614.272 221.841 603.261 212.409C601.593 210.98 600.63 209.139 600.546 206.928C600.474 205.023 601.179 203.487 602.46 202.117C609.192 194.917 625.11 192.898 634.56 192.46C637.563 192.321 640.574 192.625 643.574 192.45C645.45 192.341 647.724 191.872 648.946 190.323C651.515 187.064 646.991 180.266 645.698 177.016C644.74 174.611 644.048 172.156 643.679 169.591C643.028 165.069 642.929 159.76 645.905 155.976C647.259 154.254 649.282 153.046 651.485 152.875C660.724 152.158 661.754 166.542 667.166 171.075C669.014 169.91 668.921 165.541 669.195 163.494C670.476 153.905 673.331 143.789 677.589 135.092C678.255 133.732 679.224 132.384 680.757 131.965C682.29 131.547 683.998 132.154 685.355 132.876C689.199 134.923 691.77 139.322 692.938 143.387C695.181 151.191 693.243 182.89 689.866 190.236C688.073 194.139 684.26 196.374 682.196 200.112C681.74 209.639 683.282 213.876 686.242 222.768C688.778 230.333 691.427 237.858 694.189 245.343C695.252 248.288 699.86 259.97 697.478 262.477C690.227 270.108 677.342 275.381 670.19 282.701L669.862 283.041C672.648 288.915 677.347 294.02 680.88 299.477C687.494 309.691 700.295 346.985 700.634 358.728C700.908 368.235 698.243 378.571 694.997 387.426C693.523 391.444 691.88 395.398 690.072 399.278C689.203 401.112 683.013 412.458 684.027 413.884C691.083 423.808 698.638 433.252 705.149 443.616C707.725 447.716 710.899 445.933 714.433 446.858C723.761 449.061 737.003 462.657 734.51 472.96C731.985 483.398 717.833 467.93 713.345 470.426C710.1 475.273 719.045 487.42 709.733 492.78C708.413 493.53 706.844 493.707 705.389 493.271C700.376 491.808 697.508 485.186 695.031 480.797C689.138 486.62 680.043 501.358 671.206 492.98C669.237 491.114 667.703 488.437 666.253 486.127C664.813 488.162 662.92 491.883 661.584 494.181C659.794 497.328 657.534 500.183 654.883 502.648C647.651 509.494 638.637 515.079 630.42 520.69C619.002 528.487 606.527 539.613 593.011 543.217C586.82 540.623 579.484 532.234 574.589 527.263C565.706 518.58 550.477 500.812 544.882 490.486C546.504 487.259 548.907 484.207 550.956 481.237C558.2 470.734 565.979 460.029 574.674 450.67C583.454 441.22 611.709 416.452 615.157 405.734C615.637 404.24 615.933 402.998 615.192 401.554C612.828 400.74 607.672 403.189 605.162 403.828C580.85 410.018 571.429 432.569 554.737 448.596C547.811 455.246 542.061 452.41 538.712 444.341L538.52 443.873C540.27 436.924 545.536 433.341 546.062 429.143C543.664 426.658 532.781 430.6 528.486 429.444C518.81 426.841 511.39 415.097 522.48 408.489C527.622 405.425 537.114 405.384 541.729 402.264C542.877 396.815 527.93 392.312 532.225 383.767C533.238 381.752 535.113 377.243 537.696 376.827C551.302 374.636 566.605 387.993 578.27 392.802L578.772 393.005C586.533 390.704 595.498 384.657 602.929 380.959C608.957 377.958 620.922 375.429 618.448 366.924C615.238 355.887 608.129 346.383 601.321 337.339C595.844 330.063 585.28 330.878 577.178 330.057C566.521 328.851 556.528 326.19 547.739 334.406C539.17 342.535 531.447 351.53 522.71 359.49C518.83 363.026 507.754 369.08 503.571 363.103C495.198 351.141 521.494 335.257 522.046 330.809C519.991 326.601 509.802 327.619 505.913 326.833C502.75 325.999 492.838 323.74 490.636 321.592C479.679 310.907 487.974 298.52 502.707 301.916C505.84 302.638 512.467 302.719 514.96 302.368C514.386 292.543 501.528 268.009 513.844 264.097C535.155 257.327 531.13 300.979 545.688 307.515C549.814 309.368 568.948 308.227 573.695 306.679C570.055 295.049 555.004 287.723 546.128 280.67C535.918 272.99 531.098 262.039 524.443 252.298C508.75 229.329 503.071 213.438 500.924 185.151C497.852 144.662 494.949 103.259 523.268 69.9366C547.682 41.2089 582.731 30.8952 619.129 28.1436ZM567.426 47.9675C557.773 48.3806 537.944 66.7418 531.649 73.8295C515.844 91.6262 510.518 121.229 509.285 144.273C509.058 148.276 508.422 154.621 508.866 158.31C510.119 168.261 511.005 178.217 512.021 188.185C512.381 191.717 515.106 197.527 515.305 200.676C515.843 212.054 518.325 217.988 523.485 227.844C529.752 239.816 534.741 249.094 544.649 258.7C551.624 266.072 561.988 271.426 569.283 277.873C579.44 286.851 592.346 298.035 600.594 308.899C608.605 319.453 619.381 332.985 625.796 344.243C630.419 352.357 636.718 374.75 637.235 384.18C637.497 388.362 637.27 392.56 636.558 396.689C635.426 403.003 629.118 421.7 624.587 425.767C615.556 433.875 607.447 439.76 599.856 449.971C595.561 455.748 588.775 462.001 584.699 468.401C583.679 469.77 579.121 472.848 577.665 474.092C565.517 484.466 571.883 491.507 579.077 502.205C582.781 507.714 586.461 512.291 590.752 517.4C591.035 517.686 592.01 518.886 592.38 518.723C609.994 510.972 626.09 499.011 639.655 485.354C649.515 475.427 645.255 474.679 643.615 463.277C642.443 455.13 640.559 444.22 641.649 436.19C641.97 434.5 644.616 430.243 645.464 428.825C649.932 421.487 654.738 414.36 659.868 407.468C662.697 403.626 666.091 399.456 668.716 395.49C678.913 380.081 683.065 357.255 678.761 339.312C677.1 332.384 670.95 320.15 667.629 313.734C661.199 301.688 652.991 289.996 643.439 280.192C636.896 273.636 629.075 268.47 620.615 264.734C617.365 263.298 613.756 262.421 610.434 261.042C601.202 257.209 592.025 252.73 583.66 247.233C579.296 244.366 575.268 239.875 571.441 236.328C567.942 232.868 561.96 227.042 559.121 223.331C552.865 215.155 544.413 197.732 542.557 187.558C540.808 175.635 540.24 162.673 540.099 150.591C539.79 124.253 542.04 95.552 551.704 70.8729C554.166 64.5878 562.276 55.6593 567.634 51.4587C567.816 50.4183 568.236 48.9341 567.847 48.0402L567.426 47.9675ZM667.331 480.505C670.009 473.91 671.874 470.696 676.422 465.088C680.267 460.347 684.779 456.818 687.076 451.171C685.137 446.681 677.893 430.539 673.227 429.274C670.769 430.734 655.545 443.881 655.8 446.024C657.163 457.497 661.625 470.449 665.084 481.576C665.253 482.123 665.824 482.037 666.339 482.105C667.176 481.382 666.911 481.645 667.331 480.505Z"/><path fill="#FE6C05" transform="matrix(1.38819 0 0 1.3875 0.000488281 -0.00012207)" d="M124.024 251.581C134.133 251.979 140.952 259.352 141.642 269.22C142.235 281.739 142.315 294.934 141.976 307.447C141.628 320.322 145.076 343.053 136.657 353.511C133.626 357.223 129.24 359.572 124.47 360.037C116.803 360.8 111.82 356.114 106.304 351.608C105.424 355.518 105.845 360.619 105.772 364.669C105.644 371.884 105.771 379.578 105.095 386.745C104.982 388.364 105.043 389.786 104.303 391.194C101.009 393.172 91.0883 391.444 87.2115 390.486C86.5223 385.193 86.7965 375.36 86.7626 369.672C86.6612 355.357 86.6567 341.041 86.749 326.725L86.6736 282.036C86.6618 275.529 86.2222 261.139 87.4791 255.483C91.2291 251.297 100.461 252.977 104.712 255.742C105.727 256.403 106.829 257.222 107.813 257.941C114.082 255.262 116.136 252.437 124.024 251.581ZM106.227 339.295C108.531 341.907 109.931 343.23 113.507 343.995C120.039 343.458 121.458 341.989 121.672 335.232C122.007 324.664 121.635 314.027 121.739 303.449C121.512 294.114 122.352 278.094 121.017 269.52C119.38 269.138 116.157 268.353 114.492 268.703C111.91 268.971 109.319 268.988 107.309 270.683C106.64 271.873 106.541 273.283 106.492 274.637C105.883 291.285 106.266 307.971 105.944 324.627C105.854 329.234 105.394 334.828 106.227 339.295Z"/><path fill="#FE6C05" transform="matrix(1.38819 0 0 1.3875 0.000488281 -0.00012207)" d="M194.649 408.573C216.682 406.128 228.762 423.678 225.66 444.265C225.554 444.97 224.823 446.145 224.057 446.283C220.123 446.992 210.951 447.889 207.349 446.388C205.167 443.907 207.215 436.739 205.765 433.178C200.535 420.337 188.537 425.266 188.491 437.797C188.429 454.785 188.579 471.493 188.383 488.455C189.252 495.76 191.516 503.755 200.634 500.697C210.518 497.381 203.573 479.313 208.231 478.031C212.156 477.924 220.758 477.336 224.486 478.505C225.041 478.692 225.517 479.929 225.538 480.426C225.948 489.637 225.682 500.222 220.328 508.077C212.437 519.766 191.279 521.628 180.295 513.591C165.136 502.5 169.29 480.835 168.692 464.361C168.701 453.598 167.626 443.856 169.412 433.187C171.823 418.785 180.319 410.699 194.649 408.573Z"/><path fill="#FE6C05" transform="matrix(1.38819 0 0 1.3875 0.000488281 -0.00012207)" d="M206.059 288.048C208.037 288.009 216.428 287.439 217.321 289.356C219.442 293.907 216.086 314.176 218.452 317.122C221.185 317.966 226.016 315.024 228.805 314.306C231.733 313.552 234.804 313.885 237.382 315.512C240.431 317.438 241.696 319.584 242.489 323.047C244.024 329.752 243.695 370.877 242.652 378.51C242.271 381.294 241.734 383.39 240.224 385.766C234.93 390.554 224.939 388.54 219.174 385.606C215.415 386.93 208.45 389.557 204.898 387.048C203.266 381.428 204.242 365.707 204.327 359.277C204.462 347.39 204.521 335.501 204.504 323.613L204.405 299.899C204.39 296.704 204.338 293.146 204.407 289.933C204.428 288.944 205.298 288.578 206.059 288.048ZM226.346 378.138C227.559 377.907 228.48 377.886 229.368 377.083C231.316 372.51 229.967 333.389 228.244 325.972C227.77 323.932 224.477 324.399 222.551 324.569C221.323 325.003 218.872 325.851 218.731 327.061C217.847 334.657 217.391 370.08 218.708 375.376C220.537 377.962 223.439 377.844 226.346 378.138Z"/><path fill="#FE6C05" transform="matrix(1.38819 0 0 1.3875 0.000488281 -0.00012207)" d="M438.877 440.431C439.323 440.399 439.771 440.379 440.219 440.369C463.771 439.892 460.765 463.928 460.643 480.247C453.736 480.788 447.003 480.327 440.098 480.066C435.61 479.658 433.539 483.125 433.631 487.194C433.719 491.143 432.362 502.071 436.114 504.445C450.031 513.255 445.179 492.92 446.996 490.469C449.78 489.069 456.655 490.107 459.882 490.513C460.734 490.62 460.825 491.109 461.134 491.702C461.402 497.803 460.218 505.37 456.603 510.388C453.842 514.298 449.609 516.918 444.877 517.644C415.433 522.216 420.278 490.204 420.028 471.567C419.83 456.873 421.35 442.668 438.877 440.431ZM433.716 468.223C437.676 470.517 439.732 470.498 444.084 469.677C449.54 467.386 447.299 454.103 441.715 452.722C439.915 452.276 438.244 452.179 436.412 452.265C432.377 456.205 433.081 462.964 433.716 468.223Z"/><path fill="#FE6C05" transform="matrix(1.38819 0 0 1.3875 0.000488281 -0.00012207)" d="M256.714 440.37C269.083 438.733 278.475 448.09 278.708 460.096C278.79 464.286 279.5 476.692 277.763 480.009C274.188 481.666 259.325 480.318 253.113 481.349L252.589 481.438C251.452 486.966 251.907 492.215 252.042 497.855C252.172 503.249 254.263 505.703 259.727 506.251C265.719 506.175 264.503 496.336 264.511 492.642C264.521 488.278 273.87 490.053 276.565 489.967C277.793 489.928 278.126 490.401 278.783 491.214C278.981 496.964 278.313 505.378 275.313 510.108C269.581 518.723 255.851 520.308 247.477 514.809C239.301 509.44 238.679 502.849 238.691 493.728C238.707 481.473 237.957 468.816 239.174 456.593C240.056 447.724 248.604 442.035 256.714 440.37ZM261.589 469.816C267.454 467.037 266.751 451.495 255.585 452.406C254.408 452.965 253.488 453.277 253.078 454.518C251.967 457.882 250.897 464.098 252.575 467.307C253.267 468.609 254.454 469.577 255.868 469.994C257.327 470.416 260.096 470.111 261.589 469.816Z"/><path fill="#FE6C05" transform="matrix(1.38819 0 0 1.3875 0.000488281 -0.00012207)" d="M318.824 440.782C327.54 440.545 329.866 446.137 329.986 453.986C330.168 465.816 330.091 477.932 330.13 489.729C330.145 494.257 330.681 511.064 329.364 514.262C326.077 517.622 317.178 518.153 316.604 512.397C314.735 493.668 318.539 471.655 315.681 453.348C310.378 454.68 305.328 454.598 304.468 460.955C303.623 477.948 303.913 494.992 304.009 511.993C304.051 519.372 294.699 517.266 291.242 513.23C289.94 509.593 290.511 449.588 291.539 444.685C291.766 443.602 292.417 442.871 293.36 442.307C295.993 440.735 299.73 441.654 302.467 442.466C303.085 443.676 304.038 445.895 305.258 446.485C308.639 448.122 311.959 443.828 314.863 442.372C316.481 441.56 317.122 441.332 318.824 440.782Z"/><path fill="#FE6C05" transform="matrix(1.38819 0 0 1.3875 0.000488281 -0.00012207)" d="M164.271 314.699C164.553 319.306 164.394 325.118 164.409 329.832L164.451 358.697C164.451 362.621 163.868 372.7 165.388 375.675C166.466 376.408 168.116 376.773 169.421 376.683C173.254 376.42 175.72 371.943 176.536 368.603C178.714 359.696 174.943 318.215 178.264 314.419C181.178 313.117 186.836 314.236 189.807 315.078C190.638 319.618 190.345 330.838 190.332 335.864L190.393 365.116C190.4 368.696 191.13 383.696 188.891 387.091C187.825 388.707 181.981 387.959 179.533 387.688C175.02 381.392 174.624 381.857 168.998 386.426C165.499 389.268 160.117 388.506 155.892 387.749C153.729 385.681 152.096 383.416 151.925 380.333C151.337 369.777 151.77 358.953 151.765 348.371L151.746 327.615C151.744 324.447 151.605 318.125 152.069 315.249C152.771 314.449 153.829 314.36 154.904 314.111C158.305 313.879 160.96 314.227 164.271 314.699Z"/><path fill="#FE6C05" transform="matrix(1.38819 0 0 1.3875 0.000488281 -0.00012207)" d="M424.683 314.081C426.561 314 433.213 313.914 433.909 316.201C436.917 326.1 437.155 336.978 439.553 347.098C440.222 349.921 440.545 356.624 443.789 357.238C446.361 354.63 448.259 321.226 450.52 316.065C451.351 314.168 460.834 314.18 463.657 314.133C463.412 316.934 462.395 320.51 461.791 323.338L458.655 338.613C456.274 349.86 454.14 362.03 451.944 373.392C450.142 383.61 448.86 396.99 442.259 405.339C438.096 410.603 420.679 415.734 421.891 404.145C422.705 396.356 437.662 398.688 435.915 387.328C433.3 366.891 426.558 346.797 424.316 326.211C423.978 323.109 421.521 318.678 421.759 315.509C422.662 314.347 423.038 314.55 424.683 314.081Z"/><path fill="#FE6C05" transform="matrix(1.38819 0 0 1.3875 0.000488281 -0.00012207)" d="M326.625 312.577C333.235 311.713 341.034 314.394 345.372 319.539C349.255 324.144 349.347 330.503 349.04 336.208C348.763 341.358 340.168 339.897 336.812 339.448C336.625 336.949 336.539 334.347 336.095 331.881C335.692 329.638 334.81 327.072 332.77 325.822C331.129 324.816 328.365 324.203 326.529 324.766C325.128 325.196 324.056 326.298 323.427 327.598C321.504 331.569 321.76 365.454 322.255 371.018C322.397 372.616 322.791 374.066 323.302 375.581C325.308 377.47 326.892 378.153 329.413 379.165C338.835 374.556 335.702 370.927 336.162 362.212C338.853 361.834 346.122 361.528 348.523 362.485C348.899 362.921 349.218 363.299 349.401 363.855C350.693 367.781 348.796 376.12 347.007 379.696C344.685 384.335 340.329 388.084 335.402 389.714C330.575 391.311 324.332 390.359 319.872 388.072C315.487 385.824 312.121 381.511 310.661 376.836C308.727 370.642 308.685 338.311 309.669 330.288C309.951 327.995 310.462 325.75 311.575 323.707C314.601 318.152 320.68 314.27 326.625 312.577Z"/><path fill="#FE6C05" transform="matrix(1.38819 0 0 1.3875 0.000488281 -0.00012207)" d="M393.399 292.769C411.505 291.357 404.693 296.299 405.828 309.266C406.563 317.665 413.112 312.489 417.278 315.538C417.605 316.019 418.058 316.688 418.015 317.292C417.292 327.667 414.634 325.35 406.643 325.761C406.221 332.132 406.669 343.047 406.591 349.713C406.514 356.306 405.75 369.781 406.95 375.164C408.43 377.066 413.534 377.627 416.424 378.787L416.862 378.965C417.985 382.575 418.405 383.421 417.508 387.014C415.946 389.088 412.675 389.85 410.241 390.044C390.869 391.583 393.041 373.887 392.944 360.351C392.863 348.915 393.241 336.806 392.439 325.425C385.088 323.658 383.873 324.363 384.044 316.308C386.054 315.365 390.48 313.95 392.793 313.143C393.129 308.837 392.455 295.219 393.399 292.769Z"/><path fill="#FE6C05" transform="matrix(1.38819 0 0 1.3875 0.000488281 -0.00012207)" d="M350.242 420.205C354.049 420.147 356.203 420.564 359.858 421.604C359.95 428.567 358.931 432.939 360.175 440.331C362.768 440.955 365.476 441.192 367.955 442.233C370.888 443.465 372.012 448.236 370.605 450.891C368.687 452.62 363.706 452.551 360.472 453.313C360.365 454.003 360.282 454.697 360.223 455.392C359.048 468.939 360.412 484.636 359.817 498.344C359.377 508.474 373.05 502.585 371.227 513.919C370.979 515.464 370.623 515.598 369.382 516.568C359.919 520.117 350.259 516.603 347.378 505.944C346.19 501.547 346.842 493.917 346.75 489.153C346.523 477.366 347.34 465.396 346.712 453.611C343.973 452.923 339.151 451.583 337.776 448.525C335.684 443.876 347.007 440.567 347.154 439.129C347.674 434.048 345.768 426.707 347.514 421.631C347.857 420.699 349.319 420.47 350.242 420.205Z"/><path fill="#FE6C05" transform="matrix(1.38819 0 0 1.3875 0.000488281 -0.00012207)" d="M202.476 185.001C204.701 184.905 207.446 185.015 209.71 185.044C210.38 190.076 210.397 195.147 210.318 200.212C210.289 202.048 209.942 205.494 211.124 206.871C215.956 206.883 228.723 198.118 228.939 211.12C229.041 217.267 230.655 256.211 228.488 258.508C226.168 259.327 222.568 258.979 220.116 258.801C219.394 255.203 219.602 248.515 219.61 244.645L219.678 222.724C219.608 214.265 220.065 212.162 211.028 214.32C209.519 225.172 210.266 246.881 210.327 258.286C205.958 259.478 204.281 259.523 199.759 259.195C198.78 250.708 198.657 192.595 199.991 187.439C200.318 186.174 201.433 185.64 202.476 185.001Z"/><path fill="#FE6C05" transform="matrix(1.38819 0 0 1.3875 0.000488281 -0.00012207)" d="M257.315 288.058C260.822 287.842 266.41 287.272 268.815 290.145C269.211 291.777 269.352 294.005 269.349 295.714C269.285 325.69 269.719 355.699 269.257 385.665C269.241 386.697 267.967 387.246 267.221 387.71C265.196 388.156 257.012 388.965 256.487 386.184C255.38 380.318 255.697 373.818 255.722 367.829L255.794 344.897L255.832 312.11C255.844 307.709 255.457 291.083 257.315 288.058Z"/><path fill="#FE6C05" transform="matrix(1.38819 0 0 1.3875 0.000488281 -0.00012207)" d="M251.443 203.341C268.403 200.371 271.499 220.494 267.893 232.8C261.998 233.589 253.37 232.981 248.583 234.1C248.416 237.89 248.181 241.596 248.261 245.445C247.839 248.252 252.121 253.749 254.906 252.763C266.29 248.734 250.266 240.213 268.106 240.256C269.197 245.055 269.024 250.317 266.405 254.659C264.301 258.146 261.047 260.086 257.127 260.97C253.201 261.855 249.198 261.22 245.782 259.047C242.905 257.217 240.772 254.347 240.061 250.996C238.586 244.055 238.139 214.316 241.817 208.871C244.173 205.383 247.456 204.124 251.443 203.341ZM256.062 225.818C258.23 224.206 259.612 223.476 259.857 220.573C260.293 215.401 258.103 211.803 252.695 211.86C246.645 213.8 246.176 222.235 251.559 225.279C252.138 225.607 255.297 225.812 256.062 225.818Z"/><path fill="#FE6C05" transform="matrix(1.38819 0 0 1.3875 0.000488281 -0.00012207)" d="M384.273 441.18C391.834 441.406 390.693 442.36 396.222 446.24C400.044 448.924 404.845 438.198 410.615 441.65C411.231 442.733 411.249 443.019 411.235 444.063C411.047 458.135 400.221 454.877 397.38 458.67C393.422 463.955 394.596 489.836 394.636 497.133C394.532 504.037 397.317 516.627 388.086 516.491C385.654 516.455 384.341 516.943 382.36 515.018C381.787 513.542 381.648 511.726 381.597 510.143C381.104 494.72 381.442 479.19 381.626 463.766C381.664 460.539 381.264 444.469 381.837 442.461C382.577 441.489 383.008 441.518 384.273 441.18Z"/><path fill="#FE6C05" transform="matrix(1.38819 0 0 1.3875 0.000488281 -0.00012207)" d="M367.654 314.555C370.469 314.373 371.355 314.493 374.178 314.906C375.274 320.918 375.771 384.445 374.138 386.507C373.031 387.905 370.471 387.854 368.847 388.004C365.924 388.256 363.899 388.007 361.033 387.532C360.843 382.86 361.322 378.151 361.331 373.476C361.343 367.563 360.322 317.532 361.678 315.814C362.623 314.616 366.177 314.673 367.654 314.555Z"/><path fill="#FE6C05" transform="matrix(1.38819 0 0 1.3875 0.000488281 -0.00012207)" d="M288.349 314.142C291.68 314.235 293.274 314.313 296.612 314.866C297.312 320.359 297.107 337.185 296.958 342.783C296.776 349.569 297.847 383.493 296.137 386.605C294.931 387.674 293.994 387.731 292.414 388.103C289.354 388.232 287.369 388.055 284.351 387.801C283.084 381.607 283.556 367.544 283.567 360.557C283.542 345.385 283.612 330.212 283.777 315.041C285.295 314.628 286.799 314.407 288.349 314.142Z"/><path fill="#FE6C05" transform="matrix(1.38819 0 0 1.3875 0.000488281 -0.00012207)" d="M177.758 188.559C180.156 188.565 182.355 188.889 184.725 189.186C184.683 191.895 183.888 199.664 184.871 201.927C186.79 206.341 195.765 202.128 192.83 211.069C192.291 212.71 186.56 213.197 184.986 213.546C184.728 217.926 185.221 224.15 185.261 228.851C185.431 235.155 184.404 243.366 185.436 249.435C186.02 252.873 197.068 253.034 191.577 260.929C191.08 261.068 190.576 261.18 190.067 261.264C184.754 262.118 180.466 260.006 176.273 257.091C173.995 247.844 175.565 224.704 174.498 213.442C172.74 212.935 169.446 212.238 168.463 210.645C165.996 206.653 172.369 204.179 174.912 202.717C175.502 198.249 174.705 194.661 175.527 190.54C175.75 189.423 176.874 189.009 177.758 188.559Z"/><path fill="#FE6C05" transform="matrix(1.38819 0 0 1.3875 0.000488281 -0.00012207)" d="M285.45 288.074C288.115 287.971 294.015 287.511 295.871 289.707C297.898 292.106 298.091 299.183 295.494 301.171C292.34 301.26 286.65 301.674 284.212 299.78C282.373 297.114 282.513 290.207 285.45 288.074Z"/><path fill="#FE6C05" transform="matrix(1.38819 0 0 1.3875 0.000488281 -0.00012207)" d="M361.749 288.026C365.831 287.892 369.918 288.064 373.974 288.54C374.091 289.05 374.19 289.564 374.272 290.081C374.715 292.745 375.801 298.159 374.209 300.394C367.99 301.387 359.813 302.882 360.982 294.066C361.269 291.903 360.76 290.188 361.749 288.026Z"/></svg>